<?xml version="1.0" encoding="utf-8" ?><svg xmlns="http://www.w3.org/2000/svg" xmlns:xlink="http://www.w3.org/1999/xlink" width="896" height="1216" viewBox="240 0 410 1216" preserveAspectRatio="xMidYMid meet"><g fill="#c5cad6"><path d="M443.844 23.9246C455.507 22.6662 469.467 26.8883 478.292 34.4966C498.291 51.7374 501.406 73.0137 503.707 97.0201C507.481 98.5453 510.129 99.7065 510.791 104.262C512.534 111.239 507.065 131.635 501.738 136.495C491.76 145.597 488.317 154.131 480.587 165.584C480.281 171.884 478.803 186.532 481.528 191.819C487.975 204.329 532.427 208.286 546.483 212.588C561.226 217.1 571.623 226.379 578.804 239.929C587.527 256.388 590.092 276.231 588.708 294.657C588.083 302.987 586.705 311.263 586.131 319.595C585.497 328.789 585.888 338.215 586.246 347.416C587.164 370.976 587.691 405.147 593.475 427.547C595.458 435.227 598.643 442.735 601.29 450.213C605.209 461.282 608.424 472.724 610.159 484.352C615.468 519.955 613.389 556.302 617.786 591.98C618.667 599.127 621.053 605.313 623.299 612.083C630.358 633.356 631.635 647.492 624.88 669.377C621.772 679.443 610.352 709.563 600.976 714.03C599.598 714.686 598.012 714.946 596.571 714.324C595.185 713.725 594.266 712.363 593.752 710.994C590.998 703.652 596.26 694.253 599.28 687.748C592.604 687.956 589.718 688.136 587.981 680.407C586.801 676.094 587.347 670.735 586.539 666.49C583.206 648.999 584.671 635.829 586.906 618.314C591.03 585.984 576.94 557.207 565.684 527.8C560.672 514.818 556.451 501.544 553.042 488.053C547.925 467.167 546.671 447.371 543.158 426.353C541.207 414.674 539.055 403.102 537.315 391.377C532.424 417.187 526.409 453.666 529.38 479.132C530.776 491.098 543.477 518.888 548.314 532.481C557.315 557.775 557.733 578.884 560.395 605.53C561.48 616.394 563.301 634.879 562.606 645.372C560.193 681.814 559.887 716.424 549.751 751.906C542.048 778.872 527.827 807.678 524.487 835.179C521.933 856.202 522.912 882.193 524.502 903.274C525.025 910.208 526.952 918.794 527.879 925.993C529.892 942.036 529.64 958.282 527.128 974.254C524.743 989.445 520.638 1004.33 516.15 1019.02C509.346 1041.29 499.395 1068.41 499.474 1091.76C499.507 1101.52 503.06 1109.78 503.381 1118.09C503.619 1124.26 500.628 1130.32 502.779 1136.41C507.306 1149.23 532.145 1167.17 533.314 1178.07C533.52 1179.99 533.081 1181.69 531.78 1183.13C530.112 1184.98 527.822 1186.19 525.468 1186.92C520.143 1188.6 500.646 1190.81 494.486 1191.16C484.849 1191.72 476.27 1186.41 469.305 1180.17C462.519 1174.11 454.695 1164.61 453.347 1155.27C452.532 1149.63 455.014 1143.99 455.338 1138.33C455.707 1131.89 453.195 1125.57 453.731 1119.05C454.224 1113.07 456.471 1107.11 457.646 1101.21C459.356 1092.63 459.39 1083.84 459.196 1075.14C458.764 1055.81 456.388 1037 453.919 1017.86C452.178 1004.38 450.206 990.914 449.91 977.295C449.553 960.871 452.815 944.643 455.879 928.586C457.569 919.729 459.596 910.685 459.651 901.631C459.727 888.895 452.862 877.929 452.06 865.382C450.997 848.773 453.384 832.581 453.085 816.012C452.574 787.717 449.652 759.599 448.031 731.378L447.407 731.764C445.615 761.779 443.176 792.028 442.661 822.072C442.367 839.212 446.833 856.935 442.496 874.22C440.397 882.585 435.613 892.255 436.119 900.886C437.627 926.598 446.915 951.606 446.106 977.668C445.603 996.022 442.459 1013.81 440.095 1031.97C438.002 1047.41 436.89 1062.96 436.764 1078.54C436.532 1094.87 439.073 1104.88 442.659 1120.51C443.649 1124.82 439.899 1134.14 440.649 1139.66C441.378 1145.04 444.929 1153.64 444.435 1158.47C443.879 1158.85 443.495 1159.03 442.831 1159.24C441.948 1159.52 429.208 1185 410.64 1190.3C403.141 1192.44 374.377 1188.92 367.479 1185.15C365.548 1184.09 363.139 1182.32 362.626 1180.03C362.055 1177.48 363.379 1174.66 364.714 1172.54C366.963 1168.97 370.201 1165.83 373.024 1162.7C379.711 1155.27 387.768 1146.89 392.556 1138.07C396.207 1131.34 392.578 1125.01 392.952 1118.02C393.474 1108.28 397.101 1099.4 396.725 1089.3C396.008 1070.07 389.349 1050.6 383.799 1032.32C377.16 1010.46 370.147 987.448 367.528 964.715C366.048 952.477 366.13 940.101 367.772 927.884C372.078 897.151 375.531 868.864 371.862 837.609C368.512 810.724 357.849 786.927 349.262 761.105C336.242 721.947 333.822 678.871 332.744 637.871C332.256 619.309 337.308 597.926 338.691 579.47C340.416 556.441 345.485 536.02 353.847 514.528C367.596 482.094 370.67 455.725 363.668 421.06C361.641 411.021 361.829 398.018 358.936 387.939C356.212 402.391 352.718 421.303 350.843 435.696C348.323 455.038 348.489 465.9 343.777 485.484C340.225 499.786 335.755 513.844 330.393 527.571C320.19 553.997 309.908 574.078 308.306 603.169C307.423 619.202 311.986 630.036 311.711 645.676C311.388 652.119 310.399 658.605 309.568 665.021C308.39 674.128 311.563 689.116 297.763 688.405C300.034 694.136 307.874 711.794 298.565 715.028C292.504 714.953 288.236 707.359 285.657 702.568C276.746 686.01 268.403 666.168 266.615 647.339C264.77 627.901 275.725 609.446 278.385 590.822C282.775 552.333 279.995 512.806 287.516 474.636C291.11 454.081 302.902 434.969 304.924 414.202C307.849 384.177 310.254 353.577 310.046 323.386C309.576 310.775 306.657 298.399 306.937 285.741C307.216 258.574 317.235 222.483 346.378 213.55C362.058 208.743 380.387 207.906 396.227 201.632C405.107 198.115 415.353 197.488 415.168 184.696C415.082 178.765 414.929 173.057 414.735 167.273C409.109 158.76 406.199 149.192 398.74 142.511C394.691 138.885 391.208 132.43 389.765 127.278C387.202 118.131 380.025 101.437 392.454 97.017C392.818 94.6432 393.261 91.4953 393.437 89.1106C395.71 58.3679 410.028 28.6638 443.844 23.9246Z"/><path fill="rgba(255,255,255,0.04)" d="M445.637 30.5017C446.395 30.4533 447.153 30.4205 447.912 30.4031C471.839 29.897 487.897 49.4326 493.704 70.9101C496.672 81.8888 497.305 91.7065 497.603 103.002C499.904 103.452 502.687 103.82 505.041 104.187C504.63 123.139 499.616 129.083 487.67 142.982C485.379 146.284 483.15 149.869 481.148 153.357C478.976 157.143 475.532 162.093 474.675 166.34C473.302 173.141 474.1 181.462 474.551 188.255C475.334 200.036 486.352 203.973 495.954 207.175C505.042 210.206 514.612 212.844 524.028 214.748C530.744 216.125 538.444 216.71 545.127 218.73C550.416 220.295 555.382 222.793 559.791 226.107C573.1 236.189 578.232 251.155 581.547 266.933C586.065 288.441 580.028 306.676 579.723 327.417C579.661 353.469 581.627 379.586 583.887 405.53C584.568 413.346 585.831 423.56 588.138 431.027C592.703 446.536 600.795 462.547 603.285 478.566C609.281 517.143 607.766 556.845 612.031 595.666C612.822 602.862 616.061 608.896 618.221 615.658C620.27 622.073 622.186 629.018 623.1 635.674C623.904 641.226 623.878 646.868 623.02 652.412C620.631 667.893 610.299 693.278 601.05 706.147C600.185 707.351 599.751 707.859 598.501 708.005C599.545 694.764 614.465 677.937 608.498 662.077C606.96 657.987 604.576 655.265 600.137 656.909C594.6 661.596 598.493 675.264 596.005 681.258L595.083 681.421C591.995 678.481 593.727 672.079 592.912 668.438C588.408 648.315 591.351 634.258 593.562 614.576C595.73 595.279 588.37 568.859 581.159 551.024C575.135 536.124 569.182 520.945 564.127 505.511C559.791 492.119 556.557 478.395 554.457 464.476C552.836 453.269 552.204 443.022 550.245 431.469C546.945 412.002 542.62 391.649 540.596 372.14C540.202 368.351 541.917 351.02 542.541 347.164C539.214 350.731 535.821 354.235 532.363 357.676C533.078 359.046 533.317 359.018 534.651 359.779L535.859 358.905C536.939 371.726 531.256 390.369 528.953 403.491C525.077 425.57 522.263 447.428 522.532 469.941C522.564 472.627 522.548 472.724 521.098 475.1C520.5 476.079 520.726 475.518 520.965 477.016L522.648 477.832C527.629 501.975 540.655 524.005 547.003 548.046C548.398 553.331 549.173 559.048 549.988 564.463C546.423 564.617 537.395 564.606 535.338 567.561C538.324 569.63 546.531 568.01 550.295 567.517C552.911 595.802 557.877 624.637 556.142 653.08C555.533 663.074 554.865 673.114 553.814 683.069C553.681 684.332 551.812 683.751 550.635 685.1C551.493 687.964 553.239 687.589 553.256 688.363C553.387 717.159 545.009 753.349 533.999 779.927C516.655 821.799 513.424 859.594 518.422 904.608C520.238 920.968 523.88 933.614 523.176 951.357C521.389 996.442 500.865 1037.2 493.715 1081.19C493.151 1084.73 493.804 1096.18 492.885 1098.16L490.255 1098.87C489.641 1100.41 489.654 1099.64 490.316 1101.24C491.893 1101.57 492.308 1101.57 493.698 1102.47C496.388 1112.89 498.428 1120.59 495.764 1131.39C492.679 1143.92 527.859 1172.15 527.329 1179.16C523.024 1181.92 497.361 1184.23 490.779 1184.93C483.236 1185.74 461.41 1167.29 461.601 1159.05C463.425 1157.77 464.513 1159.1 467.268 1157.84L467.537 1156.9C465.867 1155.39 461.5 1155.79 458.887 1155.72C459.281 1148.9 461.263 1144.25 461.743 1137.79C461.941 1135.12 460.472 1127.33 459.819 1124.25C458.833 1119.61 462.296 1106.13 464.372 1102.1L466.895 1101.71C467.663 1100.17 467.551 1100.97 467.133 1099.21C463.689 1098.16 464.914 1094.57 465.113 1090.99C467.494 1048.36 454.517 1006.29 456.682 963.86C457.805 941.846 466.005 920.124 465.816 898.05C465.717 886.642 458.984 876.434 458.39 865.111C458.384 860.061 457.338 853.484 457.895 848.512C459.546 833.767 459.675 820.816 458.994 806.024C457.475 778.092 455.788 750.17 453.934 722.258C453.234 711.066 451.608 695.247 451.703 684.538C451.71 679.145 452.162 673.762 453.054 668.444C453.893 663.249 462.472 624.762 461.781 622.972C458.102 625.652 457.545 629.114 455.018 632.184L452.119 632.315L451.264 633.263L451.339 634.65C452.44 635.178 452.794 635.28 453.745 636.069C453.453 639.742 450.23 651.796 449.23 656.238L447.755 664.971C446.477 655.021 442.17 642.609 443.716 633.358C442.155 630.085 442.247 633.829 439.818 631.09C438.224 629.292 436.411 623.762 434.755 623.126L432.949 624.262C432.641 626.472 434.753 628.37 435.434 630.542C436.545 634.081 436.214 638.17 436.969 641.828C440.086 656.948 442.742 671.645 443.396 687.126C443.925 699.665 442.421 712.658 441.695 725.203C440.05 753.61 437.758 781.956 436.785 810.397C436.164 828.535 438.881 846.406 437.583 864.476C436.725 876.412 430.061 886.801 429.868 898.857C429.543 919.122 438.242 944.044 439.622 965.983C441.604 997.491 432.449 1032.76 430.989 1064.96C430.818 1068.72 431.048 1098.01 430.897 1098.32C429.509 1098.4 428.678 1098.29 427.586 1099.12C427.491 1101.24 427.127 1100.45 428.224 1101.76C429.712 1101.82 430.589 1101.72 431.945 1102.36C433.518 1106.15 437.069 1119.88 436.238 1123.11C433.064 1135.46 434.8 1142.2 437.295 1154.23C437.75 1156.42 433.15 1154.86 431.471 1156.62L431.812 1157.97C433.172 1158.17 433.485 1158.17 434.794 1158.68L435.041 1160.05C432.046 1168.73 411.695 1187.86 401.347 1184.97C394.937 1183.17 372.332 1182.61 368.889 1178.27C371.157 1170.72 393.474 1151.04 398.889 1139.93C403.346 1130.78 395.511 1116.35 402.928 1102.48C404.355 1102.07 404.547 1102.12 405.728 1101.18L405.702 1099.59C404.811 1099.15 403.912 1098.78 402.979 1098.44C402.007 1094.52 402.945 1088.37 402.488 1084.08C401.756 1077.17 400.587 1069.85 398.984 1063.1C390.015 1025.36 374.21 990.216 372.837 950.886C372.14 930.89 375.455 923.493 377.518 905.196C379.964 883.497 379.781 852.706 377.018 831.317C373.864 811.087 366.321 791.969 359.46 772.678C349.925 745.866 343.141 718.228 342.004 689.672C341.96 688.562 343.77 687.729 344.529 685.84C343.555 681.964 344.252 685.715 341.719 683.408C335.922 639.037 341.51 610.359 346.423 567.343C350.636 568.115 357.712 569.89 361.505 568.117L361.255 567.252C356.344 564.606 352.336 564.524 346.877 563.923C349.243 540.963 357.809 523.044 365.119 501.244C368.189 492.089 369.734 483.881 372.344 475.87C373.635 475.356 373.641 475.41 374.689 474.524L374.774 472.955C373.739 472.206 373.709 472.143 372.875 471.162C372.971 464.73 373.75 457.873 373.259 451.498C371.007 422.269 365.72 393.232 361.538 364.237C361.077 361.039 361.694 360.47 363.148 357.885C362.867 355.917 356.758 350.531 354.974 348.854L354.148 349.222C353.685 351.108 355.002 358.885 355.136 361.777C355.284 365.524 355.135 369.277 354.69 373.001C352.494 392.848 347.577 412.614 345.211 432.243C342.351 455.972 341.371 474.85 334.344 498.053C325.526 528.904 308.959 556.861 303.732 588.739C300.932 605.815 301.899 616.938 304.959 633.909C307.497 647.989 302.352 664.787 302.631 679.181C302.647 680.015 302.097 680.778 301.614 681.402L300.741 681.36C297.492 676.485 300.506 661.921 297.738 658.199C289.315 649.833 287.101 665.504 286.336 670.535C284.829 680.438 298.619 701.213 297.544 707.837L296.551 707.886C294.961 706.855 293.967 705.726 293.033 704.048C283.074 686.154 272.802 662.859 272.391 642.176C272.082 626.552 281.3 610.143 283.985 595.834C285.659 586.907 285.89 572.207 286.406 563.005C287.804 538.097 287.949 512.65 291.372 487.926C292.822 477.451 295.255 467.215 298.585 457.261C303.158 443.592 309.734 429.259 311.023 414.712C312.846 386.81 317.405 354.514 316.138 326.578C314.665 294.121 306.752 266.288 326.472 236.444C338.446 218.324 351.167 218.479 370.585 214.986C378.889 213.436 387.086 211.362 395.128 208.777C401.18 206.868 407.465 204.864 412.859 201.459C417.021 198.832 419.919 195.631 421.009 190.675C421.128 190.136 422.382 168.403 422.329 168.1C422.125 166.919 418.837 163.39 417.982 162.033C414.715 156.843 411.609 147.516 408.732 143.711C406.005 140.105 401.905 138.338 399.351 134.225C396.097 128.985 390.075 111.22 391.572 105.072C393.171 103.793 394.092 104.478 396.841 104.605C398.833 103.085 398.825 95.0915 399 92.1763C400.738 63.2139 413.474 33.9561 445.637 30.5017Z"/><path d="M447.057 321.23L448.939 321.969C450.047 323.529 449.005 326.286 449.531 327.983C450.673 331.668 453.834 333.292 453.21 337.507L452.318 338.118C451.302 337.288 451.614 337.327 450.46 336.979C449.33 340.969 450.556 343.673 449.418 347.135L447.315 348.019C447.322 342.917 447.202 337.815 446.952 332.718C446.284 334.666 445.572 338.012 443.376 338.283C440.872 334.49 445.959 331.383 446.672 328.979C446.77 328.648 447.026 322.064 447.057 321.23Z"/><path d="M479.145 600.048C480.469 600.478 479.961 600.249 481.015 601.392C480.864 603.738 471.67 613.62 469.222 616.652C462.359 614.714 476.966 602.23 479.145 600.048Z"/><path d="M447.185 535.083C447.994 535.305 448.464 535.544 449.236 535.873C450.474 538.439 449.192 539.497 449.389 542.187C449.689 546.289 452.72 543.019 455.436 545.356L455.267 546.816C453.709 547.821 451.235 547.502 449.263 547.475C446.762 547.52 444.26 547.486 441.761 547.375C440.695 545.83 440.917 546.673 441.163 544.739L442.021 544.252C443.967 544.35 444.772 544.53 446.591 543.962C447.375 542.544 447.17 537.062 447.185 535.083Z"/><path d="M416.271 600.157C419.017 602.26 428.173 611.417 428.945 614.895L427.679 616.658C425.512 615.667 415.87 604.693 415.008 602.052L416.271 600.157Z"/><path d="M500.584 581.755C501.951 581.95 501.286 581.748 502.48 582.773L502.375 583.826C500.294 586.481 491.845 592.616 488.66 595.064C487.42 594.661 487.865 594.805 486.845 593.705C487.334 590.529 497.574 583.876 500.584 581.755Z"/><path d="M370.535 569.098C374.82 570.825 383.357 573.786 386.504 577.129C387.166 577.832 386.7 578.668 386.45 579.914C384.353 579.375 370.204 572.8 369.626 571.591L370.535 569.098Z"/><path d="M394.047 582.196C397.595 582.55 407.009 590.276 409.224 593.357C409.808 594.169 409.29 595.007 409.033 595.94C406.639 595.515 395.487 586.349 393.732 584.201L394.047 582.196Z"/><path d="M525.814 568.221C526.577 568.894 526.295 568.793 526.7 570.043C525.272 572.599 514.701 576.926 510.909 578.852C510.192 577.707 510.289 577.722 510.195 576.35C512.543 573.358 522.048 569.817 525.814 568.221Z"/><path d="M474.85 684.119C478.942 684.016 487.303 683.107 491.07 684.565C491.86 684.871 491.892 686.269 492.154 687.414C488.239 687.471 479.326 688.203 475.813 686.757C475.225 686.515 475.051 684.945 474.85 684.119Z"/><path d="M396.385 684.299C399.921 684.234 410.157 683.253 412.15 685.634L411.928 686.952L410.887 687.518C407.26 687.521 396.715 688.329 394.69 686.013L395.075 684.711L396.385 684.299Z"/><path d="M518.87 543.018C520.055 542.901 521.242 542.802 522.431 542.721C525.171 542.541 526.548 542.497 528.735 544.393L528.675 545.216C527.127 546.432 525.878 546.204 523.854 546.247C519.307 546.514 517.951 547.02 513.828 545.218L513.649 544.337C515.803 542.868 516.079 543.268 518.87 543.018Z"/><path d="M467.883 170.503C469.347 171.835 468.99 171.055 469.289 172.753C467.265 175.222 458.815 176.584 455.399 177.345C454.226 176.705 454.65 177.032 453.884 175.81L454.276 174.703C456.737 173.502 464.278 171.741 467.883 170.503Z"/><path d="M526.054 684.289C529.597 684.225 538.842 683.433 542.043 684.838C542.714 685.133 542.592 686.32 542.694 687.321C539.334 687.329 528.115 688.182 526.12 686.34L526.054 684.289Z"/><path d="M422.027 480.337C425.503 480.47 432.681 479.822 435.719 481.491C436.425 481.878 436.291 483.358 436.398 484.485C433.097 484.496 425.358 484.982 422.693 483.131C422.086 482.71 422.138 481.27 422.027 480.337Z"/><path d="M501.164 684.251C505.098 684.206 515.033 683.359 517.619 685.204L517.71 687.188C513.8 687.291 503.964 688.276 501.322 686.363L501.164 684.251Z"/><path d="M428.827 171.534C432.916 172.2 440.212 172.962 443.984 174.537C444.795 174.876 444.69 175.762 444.89 176.88C441.23 176.974 433.069 176.221 429.89 174.078C428.931 173.431 429.127 172.932 428.827 171.534Z"/><path d="M420.352 684.765C423.991 684.391 433.953 683.77 436.979 685.252L437.472 687.113C433.557 687.508 425.817 688.042 421.916 687.156C420.828 686.908 420.76 685.886 420.352 684.765Z"/><path d="M500.512 543.555C501.938 543.515 502.658 543.365 503.957 543.974L504.213 545.077C502.34 547.456 495.569 547.016 492.682 546.952L490.073 546.801L489.374 545.556L488.466 546.111C491.443 543.15 496.26 543.611 500.512 543.555Z"/><path d="M454.523 684.153C457.744 684.031 464.198 682.986 466.815 684.552C467.456 684.936 467.462 686.438 467.617 687.399C464.312 687.393 457.949 688.541 455.221 687.008C454.517 686.612 454.641 685.255 454.523 684.153Z"/><path d="M437.493 344.335L438.945 346.015C438.754 349.416 432.544 354.074 429.696 356.755C429.232 356.713 428.876 356.429 428.405 356.172L428.268 354.869C429.665 352.493 435.238 346.908 437.493 344.335Z"/><path d="M483.452 478.77C484.557 478.658 485.664 478.571 486.773 478.509C488.922 478.404 489.7 478.664 491.266 480.1L491.279 481.14C489.778 482.225 489.796 481.882 487.632 482.091C483.479 482.485 482.125 482.987 478.348 481.31L478.71 479.994C479.91 478.873 481.736 478.95 483.452 478.77Z"/><path d="M416.27 544.636C419.602 544.21 427.003 543.64 430.172 544.782C431.132 545.128 431.093 545.901 431.537 547.152C428.253 547.578 420.87 548.086 417.723 547.041C416.748 546.717 416.752 545.89 416.27 544.636Z"/><path d="M512.537 475.26C513.174 475.463 513.28 475.747 513.843 476.308L513.662 476.999C511.528 479.247 505.183 479.827 501.877 480.359C500.594 479.474 501.127 480.047 500.471 478.393C502.447 475.953 509.093 475.701 512.537 475.26Z"/><path d="M392.838 544.372C396.742 544.39 402.936 543.459 406.593 544.796C407.442 545.106 407.395 546.129 407.685 547.323C403.998 547.324 397.308 548.275 393.935 546.929C393.173 546.625 393.123 545.437 392.838 544.372Z"/><path d="M371.828 684.743C375.025 684.383 382.909 683.831 385.963 684.926C386.721 685.197 386.717 686.178 386.996 687.228C383.308 687.518 376.666 688.378 373.203 687.15C372.258 686.816 372.264 685.966 371.828 684.743Z"/><path d="M447.09 194.803L448.668 195.336C450.489 197.706 449.539 208.612 449.116 211.851L447.41 211.079C445.913 208.237 446.886 198.431 447.09 194.803Z"/><path d="M447.207 407.44L448.88 407.972C450.45 410.227 449.628 421.314 449.512 424.5L447.744 423.963C446.075 421.069 447.023 411.182 447.207 407.44Z"/><path d="M447.032 458.385C447.642 458.576 448.404 458.927 449.01 459.181C450.314 462.444 449.624 471.038 449.449 474.927L447.71 474.365C445.899 471.624 446.854 462.045 447.032 458.385Z"/><path d="M525.031 361.56C525.311 361.601 526.13 362.014 526.432 362.152L526.53 363.155C524.745 365.792 518.223 367.618 514.999 368.702C514.153 368.644 514.2 368.52 513.363 368.089L513.594 366.54C515.397 365.137 522.438 362.633 525.031 361.56Z"/><path d="M353.59 684.302C356.431 684.215 362.781 683.696 365.038 685.298L365.203 686.396L363.964 687.616C360.993 687.694 354.619 688.091 352.167 686.494C352.031 686.15 351.894 685.806 351.757 685.462C352.45 684.463 352.152 684.898 353.59 684.302Z"/><path d="M456.728 344.784C458.083 344.865 458.101 344.888 459.398 345.313C461.724 347.616 467.803 353.582 468.116 356.681L466.81 356.646C462.545 354.666 458.405 349.097 456.728 344.784Z"/><path d="M447.127 432.973L448.678 433.509C450.525 436.111 449.554 446.347 449.39 449.894L447.904 449.4C446.023 447.165 446.97 436.144 447.127 432.973Z"/><path d="M447.053 295.753L449.002 296.617C450.25 299.985 449.614 308.291 449.453 312.252L447.717 311.654C445.931 308.855 446.863 299.366 447.053 295.753Z"/><path d="M447.163 382.396C448.802 382.721 448.103 382.377 449.359 383.427C450.098 387.213 449.782 393.841 449.789 398.013C448.664 398.338 448.747 398.349 447.634 397.992C446.298 394.918 447.005 386.188 447.163 382.396Z"/><path d="M473.334 358.897C476.115 360.34 483.911 363.616 485.447 365.504L485.059 367.579C481.93 366.441 475.236 364.45 473.237 361.841C472.688 361.125 473.139 360.053 473.334 358.897Z"/><path d="M464.406 544.667C467.441 544.32 475.153 543.561 477.981 544.772C478.735 545.095 478.746 546.078 479.032 547.118C475.365 547.372 469.318 548.068 465.821 547.011C464.867 546.723 464.874 545.904 464.406 544.667Z"/><path d="M447.429 357.547L448.75 358.08C450.583 360.165 449.789 370.116 449.704 373.321C448.843 373.118 447.906 373.101 447.59 372.47C446.089 369.475 446.934 360.509 447.429 357.547Z"/><path d="M447.551 219.901L448.633 220.433C450.432 223.126 449.604 233.426 449.28 236.962C448.59 236.648 447.766 236.453 447.534 235.88C446.242 232.691 446.778 223.066 447.551 219.901Z"/><path d="M424.069 112.417C427.677 112.174 435.088 111.353 438.079 112.876L438.665 114.994C435.358 115.202 428.191 115.958 425.111 114.666C424.373 114.357 424.349 113.407 424.069 112.417Z"/><path d="M443.927 112.412C447.322 112.205 454.658 111.431 457.826 112.748C458.565 113.055 458.59 114.016 458.872 115.012C454.986 115.215 448.152 115.865 444.748 114.506L443.927 112.412Z"/><path d="M447.34 483.432L448.794 484.187C450.387 486.719 449.532 497.141 449.178 500.408L447.663 499.729C446.146 497.119 446.925 486.692 447.34 483.432Z"/><path d="M399.962 478.615C402.736 478.389 409.412 478.316 411.878 479.686C412.938 480.275 412.83 481.368 413.104 482.723C410.097 482.815 404.541 482.423 401.696 481.222C400.365 480.66 400.51 480.102 399.962 478.615Z"/><path d="M447.495 508.993L448.657 509.553C450.398 511.632 449.485 523.023 449.315 526.154C448.649 525.835 447.782 525.594 447.561 525.034C446.232 521.673 446.857 512.353 447.495 508.993Z"/><path d="M491.95 366.253C495.574 366.709 503.63 366.248 505.714 367.602L506.104 369.749C502.778 369.838 495.682 370.449 492.857 368.76C492.119 368.319 492.172 367.334 491.95 366.253Z"/><path d="M390.068 366.416C394.291 366.906 401.186 365.64 403.421 367.062L403.77 369.108C399.675 369.444 393.432 370.898 390.323 368.72L390.068 366.416Z"/><path d="M447.366 270.88L448.761 271.383C450.36 273.728 449.785 283.863 449.512 286.98L447.878 286.492C446.042 284.095 447.103 274.15 447.366 270.88Z"/><path d="M447.585 245.341L448.776 245.875C450.513 248.102 449.529 258.978 449.272 262.12C448.707 261.82 447.729 261.453 447.554 260.985C446.325 257.684 446.861 248.556 447.585 245.341Z"/><path d="M371.041 543.987C374.071 543.928 380.292 543.16 382.986 544.655C383.715 545.059 383.75 546.215 384.002 547.251C381.012 547.389 374.425 548.052 371.905 546.619C371.291 546.27 371.224 544.876 371.041 543.987Z"/><path d="M421.581 359.208C422.578 359.902 422.317 359.769 423.075 360.8C421.561 363.864 415.766 365.542 412.364 366.911L411.239 366.507L410.933 365.447C412.135 363.593 419.221 360.418 421.581 359.208Z"/><path d="M464.4 112.436C467.915 112.207 473.127 111.66 476.522 112.567C477.826 112.916 477.937 113.812 478.596 115.101C474.995 115.322 468.008 116.106 465.011 114.537L464.4 112.436Z"/><path d="M457.304 480.612C460.311 480.436 466.449 479.785 469.066 480.936L469.333 482.119L468.384 483.253C465.05 483.237 459.14 484.973 456.913 482.746L457.304 480.612Z"/><path d="M404.265 112.246C407.847 112.391 413.571 111.419 416.826 112.774C417.543 113.073 417.634 114.265 417.912 115.253C414.281 115.182 408.726 116.056 405.36 114.77C404.504 114.443 404.557 113.448 404.265 112.246Z"/><path d="M352.08 542.855C355.08 542.831 361.379 542.434 363.747 544.063C364.368 544.489 364.412 545.971 364.582 546.912C359.563 546.681 354.333 547.66 352.08 542.855Z"/><path d="M369.457 362.175C371.592 362.197 380.041 364.593 382.246 365.941C383.127 366.48 382.961 367.049 383.216 368.299C379.648 368.952 371.36 365.614 369.457 362.175Z"/><path d="M473.678 1098.68C476.25 1098.56 482.541 1098.06 484.572 1099.46L484.732 1100.54L483.359 1101.52C480.659 1101.63 474.023 1102.68 472.805 1100.27L473.678 1098.68Z"/><path d="M410.555 1099.11C413.793 1099.02 419.315 1098 422.119 1099.32C422.825 1099.66 422.734 1100.81 422.883 1101.83C419.509 1102.02 413.979 1102.71 411.189 1101.21L410.555 1099.11Z"/><path d="M549.166 331.516C549.521 331.665 550.296 332.21 550.655 332.444C551.349 335.854 548.02 341.374 546.374 344.643C545.129 344.186 545.681 344.537 544.763 343.418C544.912 340.527 547.927 334.355 549.166 331.516Z"/><path d="M391.083 1156.25C393.997 1155.7 400.354 1155.27 403.311 1156.1C404.393 1156.4 404.366 1156.97 405.028 1158.19C402.149 1158.73 395.994 1159.05 393.016 1158.37C391.651 1158.06 391.745 1157.55 391.083 1156.25Z"/><path d="M410.831 1156.15C414.488 1155.9 420.71 1155.18 423.913 1156.5L424.457 1158.27C419.609 1158.83 413.664 1160.64 410.831 1156.15Z"/><path d="M381.175 475.063C384.411 474.939 390.131 475.781 393 477.455L393.49 479.551C389.734 479.846 382.698 478.955 381.175 475.063Z"/><path d="M474.407 1156.24C477.051 1155.7 484.104 1155.24 486.85 1156.16C487.796 1156.48 487.783 1157.06 488.316 1158.17C484.74 1158.46 480.172 1158.98 476.654 1158.35C475.117 1158.08 475.229 1157.63 474.407 1156.24Z"/><path d="M494.416 1155.61C497.365 1155.55 502.715 1154.77 505.387 1156.01C506.176 1156.37 506.188 1157.35 506.496 1158.43C503.128 1158.43 497.528 1159.39 494.891 1157.74L494.416 1155.61Z"/><path d="M344.697 332.128C345.955 332.389 345.536 332.262 346.669 332.913C348.171 335.837 351.033 341.656 350.762 344.773C347.162 343.626 344.39 335.468 344.697 332.128Z"/><path d="M362.652 367.407C365.727 367.598 373.219 370.427 374.916 372.97C370.851 374.416 364.9 370.69 362.652 367.407Z"/><path d="M483.926 112.433C488.022 112.187 492.884 110.763 494.482 114.881C490.965 115.247 487.792 115.987 484.638 114.535L483.926 112.433Z"/><path d="M529.994 367.43C531.232 367.342 530.661 367.212 531.751 367.889C530.557 370.615 526.723 372.268 524.135 373.536L522.468 373.109L522.228 372.148C523.894 370.404 527.716 368.631 529.994 367.43Z"/><path d="M536.649 541.78C539.241 541.516 540.975 541.182 543.548 541.689C544.809 543.131 544.449 542.278 544.373 544.44C542.038 544.87 540.286 545.356 537.928 545.066C536.445 543.82 536.909 544.345 536.649 541.78Z"/></g></svg>
